<?xml version="1.0" encoding="UTF-8"?>
<svg id="Layer_1" data-name="Layer 1" xmlns="http://www.w3.org/2000/svg" viewBox="0 0 842.34 261">
  <defs>
    <style>
      .cls-1 {
        fill: #94a3a2;
      }

      .cls-2 {
        fill: none;
        stroke: #000;
        stroke-miterlimit: 10;
        stroke-width: 2px;
      }

      .cls-3 {
        fill: #225958;
      }
    </style>
  </defs>
  <g>
    <path class="cls-1" d="M229.8,40.76h10.09v42.83l41.56-42.83h5.54l-28.15,29.46,34.58,46.63h-11.53l-29.48-39.89-12.52,13.15v26.74h-10.09V40.76Z"/>
    <path class="cls-1" d="M315.69,40.76v49.67c0,1.45,.04,2.9,.11,4.35,.07,1.45,.33,2.88,.78,4.29,.44,1.41,1.11,2.84,1.99,4.29,.89,1.45,2.18,2.9,3.88,4.35,2.14,1.89,4.41,3.3,6.82,4.24,2.4,.94,5.15,1.41,8.26,1.41,3.62,0,7.09-.51,10.42-1.52,3.33-1.01,6.32-2.93,8.98-5.76,1.48-1.59,2.6-3.19,3.38-4.78,.78-1.59,1.35-3.21,1.72-4.84,.37-1.63,.59-3.26,.67-4.89,.07-1.63,.11-3.24,.11-4.84V40.76h4.88v49.57c0,3.84-.63,7.45-1.88,10.82-1.26,3.37-3.12,6.32-5.6,8.86-2.48,2.54-5.54,4.53-9.2,5.98s-7.85,2.17-12.58,2.17c-7.54,0-13.48-1.03-17.84-3.1-4.36-2.07-7.65-4.64-9.86-7.72-2.22-3.08-3.62-6.41-4.21-10-.59-3.59-.89-6.87-.89-9.84V40.76h10.09Z"/>
    <path class="cls-1" d="M414.99,40.76c4.95,0,9.05,.67,12.3,2.01,3.25,1.34,5.82,3.01,7.7,5,1.88,1.99,3.21,4.15,3.99,6.47,.78,2.32,1.16,4.46,1.16,6.41,0,2.17-.37,4.4-1.1,6.68-.73,2.28-1.9,4.4-3.51,6.36-1.61,1.96-3.68,3.59-6.22,4.89-2.54,1.3-5.58,2.07-9.12,2.28v.44l1.11,.54c.89,.43,1.64,.98,2.27,1.63,.63,.65,1.44,1.7,2.44,3.15,1,1.45,2.34,3.5,4.03,6.14,1.69,2.65,4.07,6.18,7.14,10.6,1.02,1.52,2.01,2.88,2.97,4.08,.96,1.2,1.95,2.21,2.99,3.04,1.03,.83,2.14,1.47,3.32,1.9,1.18,.43,2.55,.65,4.1,.65,.37,0,.74-.02,1.11-.05,.37-.04,.74-.09,1.11-.16v4.02c-1.04,.58-2.07,.94-3.1,1.09-1.04,.14-2.37,.22-3.99,.22-2.22,0-4.12-.29-5.7-.87-1.58-.58-2.99-1.36-4.24-2.34-1.24-.98-2.4-2.16-3.46-3.53-1.06-1.38-2.14-2.9-3.24-4.57l-8.79-12.72c-1.34-2.03-2.49-3.73-3.45-5.11-.96-1.38-2-2.5-3.12-3.37s-2.35-1.48-3.73-1.85c-1.37-.36-3.1-.54-5.17-.54h-4.9v33.59h-10.09V40.76h25.16Zm-15.07,37.61h11.46c2.96,0,5.58-.51,7.84-1.52,2.26-1.01,4.17-2.34,5.73-3.97,1.56-1.63,2.72-3.44,3.5-5.43,.78-1.99,1.17-3.97,1.17-5.92,0-2.32-.43-4.46-1.28-6.41-.85-1.96-2.1-3.64-3.73-5.05-1.63-1.41-3.58-2.52-5.84-3.31-2.26-.8-4.8-1.2-7.62-1.2h-11.23v32.83Z"/>
    <path class="cls-1" d="M488.02,116.84V46.73h-29.7v-5.98h69.49v5.98h-29.7V116.84h-10.09Z"/>
    <path class="cls-3" d="M229.8,222.84v-76.09h10.09v70.11h40.01v5.98h-50.09Z"/>
    <path class="cls-3" d="M346.61,146.76v5.98h-40.01v27.28h34.36v5h-34.36v31.85h40.01v5.98h-50.09v-76.09h50.09Z"/>
    <path class="cls-3" d="M363.23,146.76h10.09v42.83l41.56-42.83h5.54l-28.15,29.46,34.58,46.63h-11.53l-29.48-39.89-12.52,13.15v26.74h-10.09v-76.09Z"/>
    <path class="cls-3" d="M448.35,200.45l-9.75,22.39h-5.1l32.81-76.09h5.54l36.13,76.09h-10.75l-10.64-22.39h-38.24Zm18.51-41.52h-.44l-15.96,36.63h33.8l-17.4-36.63Z"/>
    <path class="cls-3" d="M592.2,146.76v77.39h-.55l-61.51-59.46h-.44v58.15h-5.1v-77.39h.55l61.51,59.46h.44v-58.15h5.1Z"/>
    <path class="cls-3" d="M689.4,222.84h-9.42v-4.46c-2.81,1.45-6.37,2.77-10.66,3.97-4.29,1.2-9.21,1.79-14.76,1.79-7.4,0-13.76-1.14-19.09-3.42-5.33-2.28-9.71-5.33-13.16-9.13-3.44-3.8-5.99-8.11-7.66-12.94-1.67-4.82-2.5-9.8-2.5-14.95,0-6.01,1.07-11.39,3.21-16.14,2.14-4.75,5.13-8.75,8.98-12.01,3.84-3.26,8.4-5.76,13.69-7.5,5.28-1.74,11.06-2.61,17.34-2.61,5.47,0,10.21,.6,14.24,1.79,4.03,1.2,7.41,2.66,10.14,4.4,2.73,1.74,4.89,3.61,6.48,5.6,1.59,1.99,2.71,3.79,3.38,5.38h-7.98c-.44-1.52-1.42-3.02-2.94-4.51-1.51-1.48-3.45-2.81-5.82-3.97-2.37-1.16-5.06-2.1-8.09-2.83-3.03-.72-6.28-1.09-9.75-1.09-5.25,0-9.85,.83-13.8,2.5-3.95,1.67-7.3,4.02-10.03,7.06-2.73,3.04-4.78,6.67-6.15,10.87-1.37,4.2-2.05,8.8-2.05,13.8s.72,9.73,2.17,13.97c1.44,4.24,3.61,7.9,6.5,10.98,2.89,3.08,6.51,5.49,10.88,7.23,4.37,1.74,9.47,2.61,15.32,2.61,4.44,0,8.4-.51,11.88-1.52,3.48-1.01,6.89-2.57,10.22-4.67v-19.67h-12.41v-4.46h21.83v33.91Z"/>
    <path class="cls-3" d="M759.44,146.76v5.98h-40.01v27.28h34.36v5h-34.36v31.85h40.01v5.98h-50.09v-76.09h50.09Z"/>
    <path class="cls-3" d="M801.22,146.76c4.95,0,9.05,.67,12.3,2.01,3.25,1.34,5.82,3.01,7.7,5,1.88,1.99,3.21,4.15,3.99,6.47,.78,2.32,1.16,4.46,1.16,6.41,0,2.17-.37,4.4-1.1,6.68-.73,2.28-1.9,4.4-3.51,6.36-1.61,1.96-3.68,3.59-6.22,4.89-2.54,1.3-5.58,2.07-9.12,2.28v.44l1.11,.54c.89,.43,1.64,.98,2.27,1.63,.63,.65,1.44,1.7,2.44,3.15,1,1.45,2.34,3.5,4.03,6.14,1.69,2.65,4.07,6.18,7.14,10.6,1.02,1.52,2.01,2.88,2.97,4.08,.96,1.2,1.95,2.21,2.99,3.04,1.03,.83,2.14,1.47,3.33,1.9,1.18,.43,2.55,.65,4.1,.65,.37,0,.74-.02,1.11-.05,.37-.04,.74-.09,1.11-.16v4.02c-1.04,.58-2.07,.94-3.1,1.09-1.04,.14-2.37,.22-3.99,.22-2.22,0-4.12-.29-5.7-.87-1.58-.58-2.99-1.36-4.24-2.34-1.24-.98-2.4-2.16-3.46-3.53-1.06-1.38-2.14-2.9-3.24-4.57l-8.79-12.72c-1.34-2.03-2.49-3.73-3.45-5.11-.96-1.38-2-2.5-3.12-3.37-1.11-.87-2.36-1.48-3.73-1.85-1.37-.36-3.1-.54-5.17-.54h-4.9v33.59h-10.09v-76.09h25.16Zm-15.07,37.61h11.46c2.96,0,5.58-.51,7.84-1.52,2.26-1.01,4.17-2.34,5.73-3.97,1.56-1.63,2.72-3.44,3.5-5.43,.78-1.99,1.17-3.97,1.17-5.92,0-2.32-.43-4.46-1.28-6.41-.85-1.96-2.1-3.64-3.73-5.05-1.63-1.41-3.58-2.52-5.84-3.31-2.26-.8-4.8-1.2-7.62-1.2h-11.24v32.83Z"/>
  </g>
  <path class="cls-2" d="M180.5,142.88V0h0V261"/>
  <path class="cls-1" d="M142.5,80.25v2.25h-47.5V35h2.25c2.36,0,4.63,.94,6.3,2.61l36.35,36.35c1.67,1.67,2.61,3.94,2.61,6.3Zm-50.47,14.12c-4.9,0-8.91-4.01-8.91-8.91V35H8.91c-4.92,0-8.91,3.99-8.91,8.91V216.09c0,4.92,3.99,8.91,8.91,8.91h124.69c4.92,0,8.91-3.99,8.91-8.91V94.38h-50.47Zm-46.31,89.25c-.76,.81-2.03,.85-2.83,.09,0,0,0,0,0,0l-24.07-22.57c-.81-.76-.85-2.03-.09-2.83,.03-.03,.06-.06,.09-.09l24.07-22.57c.81-.76,2.08-.72,2.83,.09,0,0,0,0,0,0l7.27,7.75c.76,.81,.72,2.08-.09,2.83-.02,.01-.03,.03-.05,.04l-15.13,13.31,15.13,13.31c.83,.73,.91,2,.18,2.83-.01,.02-.03,.03-.04,.05l-7.27,7.75h0Zm19.04,18.73l-10.19-2.96c-1.06-.31-1.67-1.42-1.37-2.48l22.8-78.53c.31-1.06,1.42-1.67,2.48-1.37l10.19,2.96c1.06,.31,1.67,1.42,1.37,2.48h0s-22.8,78.53-22.8,78.53c-.31,1.06-1.42,1.67-2.48,1.37,0,0,0,0,0,0h0Zm59.67-41.21l-24.07,22.57c-.81,.76-2.08,.72-2.83-.09,0,0,0,0,0,0l-7.27-7.75c-.76-.81-.72-2.08,.09-2.83,.02-.01,.03-.03,.05-.04l15.13-13.31-15.13-13.31c-.83-.73-.91-2-.18-2.83,.01-.02,.03-.03,.04-.05l7.27-7.75c.76-.81,2.03-.85,2.83-.09,0,0,0,0,0,0l24.07,22.57c.81,.76,.85,2.03,.09,2.83-.03,.03-.06,.06-.09,.09h0Z"/>
</svg>