<?xml version="1.0" encoding="utf-8"?>
<!-- Generator: Adobe Illustrator 26.5.0, SVG Export Plug-In . SVG Version: 6.00 Build 0)  -->
<svg version="1.1" id="Layer_1" xmlns="http://www.w3.org/2000/svg" xmlns:xlink="http://www.w3.org/1999/xlink" x="0px" y="0px"
	 viewBox="0 0 842.3 261" style="enable-background:new 0 0 842.3 261;" xml:space="preserve">
<style type="text/css">
	.st0{fill:#A1B0AF;}
	.st1{fill:#00928D;}
	.st2{fill:none;stroke:#000000;stroke-width:2;stroke-miterlimit:10;}
</style>
<g>
	<path class="st0" d="M229.8,40.8h10.1v42.8l41.6-42.8h5.5l-28.1,29.5l34.6,46.6h-11.5L252.4,77l-12.5,13.2v26.7h-10.1L229.8,40.8
		L229.8,40.8z"/>
	<path class="st0" d="M315.7,40.8v49.7c0,1.4,0,2.9,0.1,4.3c0.1,1.4,0.3,2.9,0.8,4.3c0.4,1.4,1.1,2.8,2,4.3c0.9,1.4,2.2,2.9,3.9,4.3
		c2.1,1.9,4.4,3.3,6.8,4.2c2.4,0.9,5.1,1.4,8.3,1.4c3.6,0,7.1-0.5,10.4-1.5c3.3-1,6.3-2.9,9-5.8c1.5-1.6,2.6-3.2,3.4-4.8
		s1.4-3.2,1.7-4.8c0.4-1.6,0.6-3.3,0.7-4.9c0.1-1.6,0.1-3.2,0.1-4.8v-46h4.9v49.6c0,3.8-0.6,7.4-1.9,10.8c-1.3,3.4-3.1,6.3-5.6,8.9
		s-5.5,4.5-9.2,6s-7.9,2.2-12.6,2.2c-7.5,0-13.5-1-17.8-3.1s-7.6-4.6-9.9-7.7c-2.2-3.1-3.6-6.4-4.2-10c-0.6-3.6-0.9-6.9-0.9-9.8
		V40.8H315.7L315.7,40.8z"/>
	<path class="st0" d="M415,40.8c5,0,9,0.7,12.3,2s5.8,3,7.7,5s3.2,4.2,4,6.5s1.2,4.5,1.2,6.4c0,2.2-0.4,4.4-1.1,6.7
		s-1.9,4.4-3.5,6.4c-1.6,2-3.7,3.6-6.2,4.9s-5.6,2.1-9.1,2.3v0.4l1.1,0.5c0.9,0.4,1.6,1,2.3,1.6c0.6,0.7,1.4,1.7,2.4,3.2
		c1,1.4,2.3,3.5,4,6.1c1.7,2.7,4.1,6.2,7.1,10.6c1,1.5,2,2.9,3,4.1c1,1.2,2,2.2,3,3c1,0.8,2.1,1.5,3.3,1.9s2.5,0.7,4.1,0.7
		c0.4,0,0.7,0,1.1-0.1c0.4,0,0.7-0.1,1.1-0.2v4c-1,0.6-2.1,0.9-3.1,1.1c-1,0.1-2.4,0.2-4,0.2c-2.2,0-4.1-0.3-5.7-0.9
		c-1.6-0.6-3-1.4-4.2-2.3c-1.2-1-2.4-2.2-3.5-3.5c-1.1-1.4-2.1-2.9-3.2-4.6l-8.8-12.7c-1.3-2-2.5-3.7-3.5-5.1c-1-1.4-2-2.5-3.1-3.4
		s-2.4-1.5-3.7-1.8c-1.4-0.4-3.1-0.5-5.2-0.5h-4.9v33.6h-10.1V40.8H415L415,40.8z M399.9,78.4h11.5c3,0,5.6-0.5,7.8-1.5
		c2.3-1,4.2-2.3,5.7-4c1.6-1.6,2.7-3.4,3.5-5.4s1.2-4,1.2-5.9c0-2.3-0.4-4.5-1.3-6.4c-0.9-2-2.1-3.6-3.7-5s-3.6-2.5-5.8-3.3
		c-2.3-0.8-4.8-1.2-7.6-1.2h-11.2V78.4L399.9,78.4z"/>
	<path class="st0" d="M488,116.8V46.7h-29.7v-6h69.5v6h-29.7v70.1H488z"/>
	<path class="st1" d="M229.8,222.8v-76.1h10.1v70.1h40v6H229.8L229.8,222.8z"/>
	<path class="st1" d="M346.6,146.8v6h-40V180H341v5h-34.4v31.9h40v6h-50.1v-76.1H346.6z"/>
	<path class="st1" d="M363.2,146.8h10.1v42.8l41.6-42.8h5.5l-28.1,29.5l34.6,46.6h-11.5L385.8,183l-12.5,13.1v26.7h-10.1
		L363.2,146.8L363.2,146.8z"/>
	<path class="st1" d="M448.4,200.4l-9.8,22.4h-5.1l32.8-76.1h5.5l36.1,76.1h-10.8l-10.6-22.4H448.4z M466.9,158.9h-0.4l-16,36.6
		h33.8L466.9,158.9z"/>
	<path class="st1" d="M592.2,146.8v77.4h-0.5l-61.5-59.5h-0.4v58.1h-5.1v-77.4h0.5l61.5,59.5h0.4v-58.1L592.2,146.8L592.2,146.8z"/>
	<path class="st1" d="M689.4,222.8H680v-4.5c-2.8,1.4-6.4,2.8-10.7,4s-9.2,1.8-14.8,1.8c-7.4,0-13.8-1.1-19.1-3.4s-9.7-5.3-13.2-9.1
		c-3.4-3.8-6-8.1-7.7-12.9c-1.7-4.8-2.5-9.8-2.5-14.9c0-6,1.1-11.4,3.2-16.1s5.1-8.8,9-12c3.8-3.3,8.4-5.8,13.7-7.5
		c5.3-1.7,11.1-2.6,17.3-2.6c5.5,0,10.2,0.6,14.2,1.8c4,1.2,7.4,2.7,10.1,4.4c2.7,1.7,4.9,3.6,6.5,5.6c1.6,2,2.7,3.8,3.4,5.4h-8
		c-0.4-1.5-1.4-3-2.9-4.5c-1.5-1.5-3.5-2.8-5.8-4s-5.1-2.1-8.1-2.8c-3-0.7-6.3-1.1-9.8-1.1c-5.2,0-9.8,0.8-13.8,2.5s-7.3,4-10,7.1
		c-2.7,3-4.8,6.7-6.2,10.9s-2,8.8-2,13.8s0.7,9.7,2.2,14c1.4,4.2,3.6,7.9,6.5,11s6.5,5.5,10.9,7.2c4.4,1.7,9.5,2.6,15.3,2.6
		c4.4,0,8.4-0.5,11.9-1.5c3.5-1,6.9-2.6,10.2-4.7v-19.7h-12.4v-4.5h21.8L689.4,222.8L689.4,222.8z"/>
	<path class="st1" d="M759.4,146.8v6h-40V180h34.4v5h-34.4v31.9h40v6h-50.1v-76.1H759.4z"/>
	<path class="st1" d="M801.2,146.8c5,0,9,0.7,12.3,2s5.8,3,7.7,5s3.2,4.1,4,6.5c0.8,2.3,1.2,4.5,1.2,6.4c0,2.2-0.4,4.4-1.1,6.7
		s-1.9,4.4-3.5,6.4s-3.7,3.6-6.2,4.9s-5.6,2.1-9.1,2.3v0.4l1.1,0.5c0.9,0.4,1.6,1,2.3,1.6c0.6,0.6,1.4,1.7,2.4,3.1s2.3,3.5,4,6.1
		c1.7,2.6,4.1,6.2,7.1,10.6c1,1.5,2,2.9,3,4.1c1,1.2,2,2.2,3,3c1,0.8,2.1,1.5,3.3,1.9c1.2,0.4,2.5,0.6,4.1,0.6c0.4,0,0.7,0,1.1-0.1
		c0.4,0,0.7-0.1,1.1-0.2v4c-1,0.6-2.1,0.9-3.1,1.1c-1,0.1-2.4,0.2-4,0.2c-2.2,0-4.1-0.3-5.7-0.9s-3-1.4-4.2-2.3
		c-1.2-1-2.4-2.2-3.5-3.5c-1.1-1.4-2.1-2.9-3.2-4.6l-8.8-12.7c-1.3-2-2.5-3.7-3.5-5.1s-2-2.5-3.1-3.4c-1.1-0.9-2.4-1.5-3.7-1.9
		c-1.4-0.4-3.1-0.5-5.2-0.5h-4.9v33.6H776v-76.1L801.2,146.8L801.2,146.8z M786.1,184.4h11.5c3,0,5.6-0.5,7.8-1.5
		c2.3-1,4.2-2.3,5.7-4s2.7-3.4,3.5-5.4c0.8-2,1.2-4,1.2-5.9c0-2.3-0.4-4.5-1.3-6.4c-0.8-2-2.1-3.6-3.7-5.1s-3.6-2.5-5.8-3.3
		c-2.3-0.8-4.8-1.2-7.6-1.2h-11.2L786.1,184.4L786.1,184.4z"/>
</g>
<path class="st2" d="M180.5,142.9V0l0,0v261"/>
<path class="st0" d="M142.5,80.2v2.2H95V35h2.2c2.4,0,4.6,0.9,6.3,2.6L139.9,74C141.6,75.6,142.5,77.9,142.5,80.2L142.5,80.2z
	 M92,94.4c-4.9,0-8.9-4-8.9-8.9V35H8.9C4,35,0,39,0,43.9v172.2c0,4.9,4,8.9,8.9,8.9h124.7c4.9,0,8.9-4,8.9-8.9V94.4L92,94.4L92,94.4
	z M45.7,183.6c-0.8,0.8-2,0.9-2.8,0.1l0,0l-24.1-22.6c-0.8-0.8-0.9-2-0.1-2.8c0,0,0.1-0.1,0.1-0.1l24.1-22.6
	c0.8-0.8,2.1-0.7,2.8,0.1l0,0l7.3,7.8c0.8,0.8,0.7,2.1-0.1,2.8c0,0,0,0,0,0l-15.1,13.3L52.9,173c0.8,0.7,0.9,2,0.2,2.8
	c0,0,0,0,0,0.1L45.7,183.6L45.7,183.6L45.7,183.6z M64.8,202.3l-10.2-3c-1.1-0.3-1.7-1.4-1.4-2.5L76,118.4c0.3-1.1,1.4-1.7,2.5-1.4
	l10.2,3c1.1,0.3,1.7,1.4,1.4,2.5l0,0L67.2,201C66.9,202,65.8,202.6,64.8,202.3L64.8,202.3L64.8,202.3L64.8,202.3z M124.4,161.1
	l-24.1,22.6c-0.8,0.8-2.1,0.7-2.8-0.1l0,0l-7.3-7.8c-0.8-0.8-0.7-2.1,0.1-2.8c0,0,0,0,0.1,0l15.1-13.3l-15.1-13.3
	c-0.8-0.7-0.9-2-0.2-2.8c0,0,0,0,0-0.1l7.3-7.8c0.8-0.8,2-0.9,2.8-0.1l0,0l24.1,22.6C125.2,159,125.3,160.3,124.4,161.1
	C124.5,161.1,124.5,161.1,124.4,161.1L124.4,161.1L124.4,161.1z"/>
</svg>
