<?xml version="1.0" encoding="utf-8"?>
<!-- Generator: Adobe Illustrator 25.4.1, SVG Export Plug-In . SVG Version: 6.00 Build 0)  -->
<svg version="1.1" id="Layer_1" xmlns="http://www.w3.org/2000/svg" xmlns:xlink="http://www.w3.org/1999/xlink" x="0px" y="0px"
	 viewBox="0 0 284.6 81.1" style="enable-background:new 0 0 284.6 81.1;" xml:space="preserve">
<style type="text/css">
	.st0{fill:#737373;}
</style>
<g id="surface1">
	<g>
		<g transform="translate(42.092509, 195.567981)">
			<path d="M-34-157h14.1c0.7,0,0.9,0.4,0.9,0.9v5.9c0,0.7-0.3,0.9-0.9,0.9h-21.2c-0.6,0-0.9-0.3-0.9-0.9v-45.5
				c0-0.6,0.4-0.9,0.9-0.9h6.2c0.6,0,0.9,0.4,0.9,0.9V-157z"/>
		</g>
	</g>
	<g>
		<g transform="translate(77.392289, 195.567981)">
			<path d="M-18.5-195.6c0-0.6-0.2-0.9-0.9-0.9h-21.8c-0.5,0-0.9,0.4-0.9,0.9v45.5c0,0.6,0.4,0.9,0.9,0.9h21.8
				c0.7,0,0.9-0.4,0.9-0.9v-5.9c0-0.7-0.2-0.9-0.9-0.9h-14.8v-12h11.3c0.6,0,0.9-0.4,0.9-1v-5.9c0-0.7-0.4-1-0.9-1h-11.3v-11.8h14.8
				c0.7,0,0.9-0.4,0.9-1V-195.6z"/>
		</g>
	</g>
	<g>
		<g transform="translate(113.225111, 195.567981)">
			<path d="M-16.7-149.1c0.9,0,1.3-0.6,0.9-1.4l-10.7-23.9l10.1-20.7c0.4-0.8,0.1-1.4-0.8-1.4h-6.2c-0.7,0-1.1,0.3-1.4,0.9L-34-177
				v-18.4c0-0.8-0.4-1.2-1.2-1.2h-5.7c-0.8,0-1.2,0.4-1.2,1.2v45c0,0.8,0.4,1.2,1.2,1.2h5.7c0.8,0,1.2-0.4,1.2-1.2v-13.1l2.2-4.2
				l7.5,17.6c0.2,0.6,0.6,0.9,1.4,0.9H-16.7z"/>
		</g>
	</g>
	<g>
		<g transform="translate(151.249317, 195.567981)">
			<path d="M-13.5-149.1c0.7,0,0.9-0.4,0.8-1l-9.8-45.5c-0.1-0.6-0.5-0.8-1-0.8h-8.2c-0.5,0-0.9,0.2-1,0.8l-9.8,45.5
				c-0.2,0.7,0.1,1,0.8,1h6.3c0.5,0,0.8-0.3,0.9-0.8l1.6-8.6h10.5l1.7,8.6c0.1,0.5,0.4,0.8,0.9,0.8H-13.5z M-23.9-165.5h-7.6
				l3.8-20.7L-23.9-165.5z"/>
		</g>
	</g>
	<g>
		<g transform="translate(192.234853, 195.567981)">
			<path d="M-23.9-196.5c-0.7,0-0.9,0.4-0.9,0.9v25h-0.4l-9-25.2c-0.2-0.5-0.5-0.8-1.1-0.8h-5.9c-0.6,0-0.9,0.4-0.9,0.9v45.5
				c0,0.6,0.4,0.9,0.9,0.9h6.2c0.6,0,0.9-0.4,0.9-0.9v-25.1h0.3l9.1,25.3c0.2,0.5,0.5,0.8,1.1,0.8h5.9c0.6,0,0.9-0.4,0.9-0.9v-45.5
				c0-0.6-0.4-0.9-0.9-0.9H-23.9z"/>
		</g>
	</g>
	<g>
		<g transform="translate(229.726016, 195.567981)">
			<path d="M-42.1-157.7c0,5.6,3,8.5,8.5,8.5h7.8c5.5,0,8.5-3,8.5-8.5v-16.5c0-0.7-0.4-0.9-0.9-0.9h-10c-0.6,0-0.9,0.3-0.9,0.9v5.9
				c0,0.6,0.3,0.9,0.9,0.9h3.1v7.9c0,1.6-0.8,2.4-2.4,2.4h-4.3c-1.5,0-2.4-0.8-2.4-2.4v-27c0-1.5,0.8-2.4,2.4-2.4h4.3
				c1.5,0,2.4,0.8,2.4,2.4v4.5c0,0.6,0.3,0.9,0.9,0.9h5.9c0.6,0,0.9-0.4,0.9-0.9v-6.2c0-5.6-3-8.5-8.5-8.5h-7.8
				c-5.6,0-8.5,3-8.5,8.5V-157.7z"/>
		</g>
	</g>
	<g>
		<g transform="translate(266.802593, 195.567981)">
			<path d="M-18.5-195.6c0-0.6-0.2-0.9-0.9-0.9h-21.8c-0.5,0-0.9,0.4-0.9,0.9v45.5c0,0.6,0.4,0.9,0.9,0.9h21.8
				c0.7,0,0.9-0.4,0.9-0.9v-5.9c0-0.7-0.2-0.9-0.9-0.9h-14.8v-12h11.3c0.6,0,0.9-0.4,0.9-1v-5.9c0-0.7-0.4-1-0.9-1h-11.3v-11.8h14.8
				c0.7,0,0.9-0.4,0.9-1V-195.6z"/>
		</g>
	</g>
	<g>
		<g transform="translate(302.635416, 195.567981)">
			<path d="M-17.7-188c0-5.6-3-8.5-8.5-8.5h-14.9c-0.6,0-0.9,0.4-0.9,0.9v45.5c0,0.6,0.4,0.9,0.9,0.9h6.2c0.6,0,0.9-0.4,0.9-0.9
				V-165h4.1l4,15c0.1,0.5,0.4,0.8,1,0.8h6.2c0.7,0,1-0.4,0.8-1.1l-4.1-15.5c2.8-1.2,4.3-3.9,4.3-7.8V-188z M-34-172.8v-15.9h5.9
				c1.5,0,2.4,0.8,2.4,2.4v11.1c0,1.5-0.8,2.4-2.4,2.4H-34z"/>
		</g>
	</g>
	<g>
		<g transform="translate(44.600423, 229.652999)">
			<path class="st0" d="M-38.7-168.9h-6.2v-3h15.7v3h-6.2v19.8h-3.3V-168.9z"/>
		</g>
	</g>
	<g>
		<g transform="translate(65.431015, 229.652999)">
			<path class="st0" d="M-29.3-171.9v3h-10.6v6.2h9.4v3.1h-9.4v7.3h10.6v3.1h-13.9v-22.8H-29.3z"/>
		</g>
	</g>
	<g>
		<g transform="translate(87.129509, 229.652999)">
			<path class="st0" d="M-34.1-161.4l11,12.2h-4.5l-8.6-10l-3.6,3.6v6.4h-3.3v-22.8h3.3v12.2l2.5-2.7l9.5-9.6h4.4L-34.1-161.4z"/>
		</g>
	</g>
	<g>
		<g transform="translate(113.681823, 229.652999)">
			<path class="st0" d="M-28.1-155.5c0,1-0.2,1.9-0.6,2.7c-0.4,0.8-1,1.5-1.7,2.2c-1.5,1.2-3.4,1.9-5.7,1.9c-1.8,0-3.4-0.4-4.9-1.1
				c-1.5-0.7-2.5-1.7-3.2-3l2.9-1.5c0.4,0.8,1.1,1.4,2,1.8c0.9,0.4,2,0.6,3.2,0.6c3.1,0,4.7-1.2,4.7-3.6c0-0.5-0.1-0.8-0.2-1.2
				c-0.2-0.3-0.4-0.6-0.7-0.9c-0.8-0.6-2.2-1.2-4.2-1.7c-1.2-0.3-2.2-0.6-3-1c-0.8-0.4-1.5-0.8-2.1-1.3c-1.3-1.1-2-2.5-2-4.3
				c0-0.9,0.2-1.7,0.5-2.5c0.4-0.8,0.9-1.5,1.5-2c0.7-0.6,1.4-1,2.3-1.3c0.9-0.3,1.9-0.4,2.9-0.4c1.6,0,3,0.3,4.3,0.9
				c1.3,0.6,2.3,1.4,3,2.5l-2.6,1.6c-0.6-0.8-1.3-1.3-2.2-1.6s-1.7-0.5-2.6-0.5c-0.6,0-1.2,0.1-1.8,0.3c-0.5,0.2-1,0.5-1.3,0.8
				c-0.3,0.3-0.5,0.6-0.7,1c-0.1,0.4-0.2,0.8-0.2,1.2c0,0.3,0,0.6,0.1,0.9c0.1,0.3,0.3,0.6,0.6,0.9c0.3,0.3,0.8,0.6,1.4,0.9
				c0.6,0.3,1.5,0.6,2.5,0.8c1.3,0.3,2.4,0.7,3.2,1c0.9,0.4,1.6,0.8,2.2,1.3C-28.8-159-28.1-157.4-28.1-155.5z"/>
		</g>
	</g>
	<g>
		<g transform="translate(136.376797, 229.652999)">
			<path class="st0" d="M-38.7-168.9h-6.2v-3h15.7v3h-6.2v19.8h-3.3V-168.9z"/>
		</g>
	</g>
	<g>
		<g transform="translate(157.207383, 229.652999)">
			<path class="st0" d="M-45.1-149.1"/>
		</g>
	</g>
	<g>
		<g transform="translate(169.648263, 229.652999)">
			<path class="st0" d="M-30.7-165.6c-0.1,0.4-0.2,0.8-0.5,1.2c-0.2,0.4-0.5,0.8-0.9,1.1c-0.4,0.4-0.8,0.8-1.2,1.1
				c-0.5,0.4-0.9,0.8-1.4,1.2c0.4,0.5,0.8,0.9,1.2,1.4c0.4,0.5,0.8,0.9,1.3,1.4l2.4,2.6c0.6-0.6,1.2-1.2,1.8-1.8
				c0.6-0.6,1.1-1.3,1.7-2l2.3,2.1c-0.6,0.8-1.2,1.4-1.8,2.1c-0.6,0.6-1.2,1.3-1.9,1.9l3.8,4.2h-4.1c-0.2-0.2-0.5-0.5-0.7-0.7
				c-0.2-0.2-0.4-0.4-0.5-0.6l-0.8-1c0,0-0.1,0.1-0.1,0.1c0,0-0.1,0-0.1,0.1c-0.5,0.3-0.9,0.7-1.4,1c-0.5,0.3-1,0.6-1.5,0.9
				c-0.5,0.2-1.1,0.4-1.8,0.6c-0.6,0.2-1.4,0.2-2.2,0.2c-0.8,0-1.6-0.1-2.4-0.4c-0.8-0.2-1.5-0.6-2.1-1.1c-0.6-0.5-1.1-1.1-1.4-1.8
				c-0.4-0.7-0.5-1.5-0.5-2.5c0-0.8,0.1-1.5,0.4-2.2c0.2-0.7,0.6-1.3,1-1.8c0.4-0.6,0.9-1.1,1.4-1.6c0.5-0.5,1.1-1,1.7-1.4
				c-0.6-0.8-1.3-1.5-2-2.2c-0.7-0.7-1.3-1.4-2-2.2v-0.2c0-0.9,0.2-1.7,0.6-2.5s0.9-1.5,1.5-2c0.6-0.6,1.3-1,2.1-1.3
				c0.8-0.3,1.6-0.5,2.4-0.5c0.8,0,1.5,0.2,2.3,0.5c0.7,0.3,1.4,0.7,2,1.2c0.6,0.5,1,1.1,1.4,1.8c0.4,0.7,0.5,1.4,0.5,2.2
				c0,0.2,0,0.3,0,0.5C-30.6-166-30.7-165.8-30.7-165.6z M-35.3-151.9c1.1-0.4,2.1-1,3.1-1.7c-0.6-0.6-1.1-1.2-1.7-1.9
				c-0.6-0.6-1.1-1.2-1.7-1.9l-1.7-1.9c-0.4,0.3-0.8,0.6-1.2,1c-0.4,0.3-0.7,0.7-1,1.1c-0.3,0.4-0.6,0.8-0.8,1.2
				c-0.2,0.4-0.3,0.9-0.3,1.4c0,1,0.3,1.8,0.9,2.3c0.6,0.5,1.4,0.7,2.2,0.7c0.4,0,0.7,0,1.1-0.1C-35.9-151.6-35.6-151.7-35.3-151.9z
				 M-33.8-166.5c0-0.4-0.1-0.7-0.2-1.1c-0.2-0.3-0.4-0.6-0.6-0.9c-0.3-0.3-0.6-0.5-0.9-0.6c-0.4-0.2-0.7-0.2-1.1-0.2
				c-0.8,0-1.4,0.3-2,0.8c-0.6,0.5-1,1.2-1.2,2l3.1,3.4c0.3-0.2,0.6-0.4,0.9-0.7c0.3-0.2,0.6-0.5,0.8-0.7c0,0,0.1-0.1,0.2-0.2
				c0.1-0.1,0.2-0.2,0.2-0.2c0.3-0.2,0.5-0.4,0.6-0.6c0.2-0.2,0.3-0.5,0.3-0.8V-166.5z"/>
		</g>
	</g>
	<g>
		<g transform="translate(195.139815, 229.652999)">
			<path class="st0" d="M-30.7-165.6c-0.1,0.4-0.2,0.8-0.5,1.2c-0.2,0.4-0.5,0.8-0.9,1.1c-0.4,0.4-0.8,0.8-1.2,1.1
				c-0.5,0.4-0.9,0.8-1.4,1.2c0.4,0.5,0.8,0.9,1.2,1.4c0.4,0.5,0.8,0.9,1.3,1.4l2.4,2.6c0.6-0.6,1.2-1.2,1.8-1.8
				c0.6-0.6,1.1-1.3,1.7-2l2.3,2.1c-0.6,0.8-1.2,1.4-1.8,2.1c-0.6,0.6-1.2,1.3-1.9,1.9l3.8,4.2h-4.1c-0.2-0.2-0.5-0.5-0.7-0.7
				c-0.2-0.2-0.4-0.4-0.5-0.6l-0.8-1c0,0-0.1,0.1-0.1,0.1c0,0-0.1,0-0.1,0.1c-0.5,0.3-0.9,0.7-1.4,1c-0.5,0.3-1,0.6-1.5,0.9
				c-0.5,0.2-1.1,0.4-1.8,0.6c-0.6,0.2-1.4,0.2-2.2,0.2c-0.8,0-1.6-0.1-2.4-0.4c-0.8-0.2-1.5-0.6-2.1-1.1c-0.6-0.5-1.1-1.1-1.4-1.8
				c-0.4-0.7-0.5-1.5-0.5-2.5c0-0.8,0.1-1.5,0.4-2.2c0.2-0.7,0.6-1.3,1-1.8c0.4-0.6,0.9-1.1,1.4-1.6c0.5-0.5,1.1-1,1.7-1.4
				c-0.6-0.8-1.3-1.5-2-2.2c-0.7-0.7-1.3-1.4-2-2.2v-0.2c0-0.9,0.2-1.7,0.6-2.5s0.9-1.5,1.5-2c0.6-0.6,1.3-1,2.1-1.3
				c0.8-0.3,1.6-0.5,2.4-0.5c0.8,0,1.5,0.2,2.3,0.5c0.7,0.3,1.4,0.7,2,1.2c0.6,0.5,1,1.1,1.4,1.8c0.4,0.7,0.5,1.4,0.5,2.2
				c0,0.2,0,0.3,0,0.5C-30.6-166-30.7-165.8-30.7-165.6z M-35.3-151.9c1.1-0.4,2.1-1,3.1-1.7c-0.6-0.6-1.1-1.2-1.7-1.9
				c-0.6-0.6-1.1-1.2-1.7-1.9l-1.7-1.9c-0.4,0.3-0.8,0.6-1.2,1c-0.4,0.3-0.7,0.7-1,1.1c-0.3,0.4-0.6,0.8-0.8,1.2
				c-0.2,0.4-0.3,0.9-0.3,1.4c0,1,0.3,1.8,0.9,2.3c0.6,0.5,1.4,0.7,2.2,0.7c0.4,0,0.7,0,1.1-0.1C-35.9-151.6-35.6-151.7-35.3-151.9z
				 M-33.8-166.5c0-0.4-0.1-0.7-0.2-1.1c-0.2-0.3-0.4-0.6-0.6-0.9c-0.3-0.3-0.6-0.5-0.9-0.6c-0.4-0.2-0.7-0.2-1.1-0.2
				c-0.8,0-1.4,0.3-2,0.8c-0.6,0.5-1,1.2-1.2,2l3.1,3.4c0.3-0.2,0.6-0.4,0.9-0.7c0.3-0.2,0.6-0.5,0.8-0.7c0,0,0.1-0.1,0.2-0.2
				c0.1-0.1,0.2-0.2,0.2-0.2c0.3-0.2,0.5-0.4,0.6-0.6c0.2-0.2,0.3-0.5,0.3-0.8V-166.5z"/>
		</g>
	</g>
	<g>
		<g transform="translate(220.631367, 229.652999)">
			<path class="st0" d="M-45.1-149.1"/>
		</g>
	</g>
	<g>
		<g transform="translate(233.072247, 229.652999)">
			<path class="st0" d="M-34.1-161.4l11,12.2h-4.5l-8.6-10l-3.6,3.6v6.4h-3.3v-22.8h3.3v12.2l2.5-2.7l9.5-9.6h4.4L-34.1-161.4z"/>
		</g>
	</g>
	<g>
		<g transform="translate(259.624568, 229.652999)">
			<path class="st0" d="M-32.7-172.2c1.5,0,3,0.3,4.4,0.9c1.4,0.6,2.6,1.5,3.6,2.5c1,1.1,1.8,2.3,2.4,3.7c0.6,1.4,0.9,2.9,0.9,4.5
				c0,1.6-0.3,3.1-0.9,4.5c-0.6,1.4-1.4,2.7-2.4,3.7c-1,1.1-2.2,1.9-3.6,2.5c-1.4,0.6-2.8,0.9-4.4,0.9c-1.5,0-3-0.3-4.4-0.9
				s-2.6-1.5-3.6-2.5c-1-1.1-1.8-2.3-2.4-3.7c-0.6-1.4-0.9-2.9-0.9-4.5c0-1.6,0.3-3.1,0.9-4.5c0.6-1.4,1.4-2.7,2.4-3.7
				s2.2-1.9,3.6-2.5C-35.7-171.9-34.2-172.2-32.7-172.2z M-32.7-152c1.1,0,2.1-0.2,3.1-0.7c1-0.4,1.8-1,2.5-1.8
				c0.7-0.8,1.3-1.7,1.7-2.7c0.4-1,0.6-2.1,0.6-3.3c0-1.2-0.2-2.3-0.6-3.3s-1-1.9-1.7-2.7c-0.7-0.8-1.5-1.4-2.5-1.8
				c-0.9-0.4-2-0.7-3.1-0.7s-2.1,0.2-3.1,0.7c-0.9,0.4-1.8,1-2.5,1.8c-0.7,0.8-1.3,1.7-1.7,2.7c-0.4,1-0.6,2.1-0.6,3.3
				c0,1.2,0.2,2.3,0.6,3.3c0.4,1,1,1.9,1.7,2.7c0.7,0.8,1.5,1.4,2.5,1.8C-34.8-152.2-33.8-152-32.7-152z"/>
		</g>
	</g>
	<g>
		<g transform="translate(288.330551, 229.652999)">
			<path class="st0" d="M-43.1-149.1v-22.8h8.1c1.6,0,3.1,0.3,4.4,0.9c1.3,0.6,2.3,1.4,3.2,2.4c0.8,1,1.5,2.2,1.9,3.6
				c0.4,1.4,0.7,2.9,0.7,4.4c0,1.6-0.2,3.1-0.7,4.5c-0.5,1.4-1.1,2.6-1.9,3.6s-1.8,1.8-2.9,2.4c-1.1,0.6-2.3,0.9-3.6,0.9H-43.1z
				 M-35.1-152.3c1.2,0,2.3-0.2,3.1-0.7c0.9-0.4,1.6-1,2.1-1.8c0.6-0.8,1-1.6,1.2-2.6c0.3-1,0.4-2.1,0.4-3.2s-0.1-2.1-0.4-3.2
				c-0.3-1-0.7-1.9-1.2-2.7c-0.5-0.8-1.2-1.4-2.1-1.8c-0.9-0.5-1.9-0.7-3.1-0.7h-4.6v16.6H-35.1z"/>
		</g>
	</g>
	<g>
		<g transform="translate(314.175685, 229.652999)">
			<path class="st0" d="M-29.3-171.9v3h-10.6v6.2h9.4v3.1h-9.4v7.3h10.6v3.1h-13.9v-22.8H-29.3z"/>
		</g>
	</g>
</g>
</svg>
